# xmcd CD database file
#
# Track frame offsets:
#	150
#	11582
#	25358
#	39510
#	49723
#	62934
#	74240
#	97528
#	108207
#
# Disc length: 1636 seconds
#
# Revision: 0
# Processed by: cddbd v1.5.2PL0 Copyright (c) Steve Scherf et al.
# Submitted via: CDex 1.51
#
DISCID=72066209
DTITLE=Blind Joe - People Like Me
DYEAR=2005
DGENRE=Blues
TTITLE0=The Fireman
TTITLE1=People Like Me
TTITLE2=Sell a Lot of Beer
TTITLE3=Back at the Bar
TTITLE4=Country Comfort
TTITLE5=Another Drinking Song
TTITLE6=Turn the Page
TTITLE7=The Blind Joe Song
TTITLE8=Drinking Your Memory Off My Mind
EXTD=YEAR: 2005
EXTT0=
EXTT1=
EXTT2=
EXTT3=
EXTT4=
EXTT5=
EXTT6=
EXTT7=
EXTT8=
PLAYORDER=
